<?xml version="1.0" encoding="UTF-8" standalone="no"?>
<svg xmlns="http://www.w3.org/2000/svg" width="736px" height="849px" viewBox="0 0 736 849">
    <defs>
        <linearGradient id="Gradient-0" x1="0.252549" y1="0.134028" x2="0.735151" y2="0.870675">
            <stop offset="0" stop-color="#fab158"/>
            <stop offset="1" stop-color="#b81cba"/>
        </linearGradient>
        <linearGradient id="Gradient-1" x1="0.243352" y1="0.119989" x2="0.743322" y2="0.883147">
            <stop offset="0" stop-color="#57ffe2"/>
            <stop offset="1" stop-color="#13656b"/>
        </linearGradient>
        <linearGradient id="Gradient-2" x1="1" y1="0.470626" x2="0" y2="0.470626">
            <stop offset="0" stop-color="#a49afd"/>
            <stop offset="1" stop-color="#ddff60"/>
        </linearGradient>
        <linearGradient id="Gradient-3" x1="0.755972" y1="0.123545" x2="0.218169" y2="0.846727">
            <stop offset="0" stop-color="#439db6"/>
            <stop offset="1" stop-color="#a02eac"/>
        </linearGradient>
    </defs>
    <style>
@keyframes hex_inside_3_fo { 0% { fill-opacity: 0.8; } 20% { fill-opacity: 0.1; } 60% { fill-opacity: 1; } 80% { fill-opacity: 1; } 100% { fill-opacity: 0.8; } }
@keyframes a0_fo { 0% { fill-opacity: 0.5; } 60% { fill-opacity: 1; } 100% { fill-opacity: 0.5; } }
@keyframes a1_fo { 0% { fill-opacity: 0.5; } 60% { fill-opacity: 1; } 100% { fill-opacity: 0.5; } }
@keyframes a2_fo { 0% { fill-opacity: 0.5; } 60% { fill-opacity: 1; } 100% { fill-opacity: 0.5; } }
@keyframes a3_fo { 0% { fill-opacity: 0.5; } 60% { fill-opacity: 1; } 100% { fill-opacity: 0.5; } }
@keyframes a4_fo { 0% { fill-opacity: 0.5; } 60% { fill-opacity: 1; } 100% { fill-opacity: 0.5; } }
@keyframes a5_fo { 0% { fill-opacity: 0.5; } 60% { fill-opacity: 1; } 100% { fill-opacity: 0.5; } }
@keyframes a6_fo { 0% { fill-opacity: 0.5; } 60% { fill-opacity: 1; } 100% { fill-opacity: 0.5; } }
@keyframes hex_inside_2_fo { 0% { fill-opacity: 0; } 40% { fill-opacity: 0.1; } 60% { fill-opacity: 0.4; } 80% { fill-opacity: 0.4; } 100% { fill-opacity: 0; } }
@keyframes hex_inside_1_fo { 0% { fill-opacity: 1; } 40% { fill-opacity: 0.4; } 60% { fill-opacity: 0.4; } 100% { fill-opacity: 1; } }
    </style>
    <title>DiagrammeR_hex_logo</title>
    <desc>Created with Sketch.</desc>
    <g id="DiagrammeR" stroke="none" stroke-width="1" fill="none" fill-rule="evenodd">
        <g id="DiagrammeR_hex_logo">
            <path id="hex_inside_3" fill-opacity="0.8" fill="url(#Gradient-0)" d="M725.944,632.073L368.238,838.592L10.5312,632.073L10.5312,218.927L368.238,12.4078L725.944,218.927Z" filter="saturate(1.2)" style="animation: 5s linear infinite both hex_inside_3_fo;"/>
            <ellipse rx="44.2303" ry="44.2303" fill="#ffffff" fill-opacity="0.5" stroke="none" filter="blur(10px)" transform="translate(227.162,319.23)" style="animation: 5s linear infinite both a0_fo;"/>
            <ellipse rx="84.7697" ry="84.7697" fill="#cfe7ff" fill-opacity="0.5" stroke="none" filter="blur(10px)" transform="translate(366.407,454.687)" style="animation: 5s linear infinite both a1_fo;"/>
            <ellipse rx="60.7697" ry="60.7697" fill="#ffffff" fill-opacity="0.5" stroke="none" filter="blur(10px)" transform="translate(515.403,340.377)" style="animation: 5s linear infinite both a2_fo;"/>
            <ellipse rx="60.7697" ry="60.7697" fill="#ffffff" fill-opacity="0.5" stroke="none" filter="blur(10px)" transform="translate(595.01,561.857)" style="animation: 5s linear infinite both a3_fo;"/>
            <ellipse rx="58.7697" ry="58.7697" fill="#ffffff" fill-opacity="0.5" stroke="none" filter="blur(10px)" transform="translate(183.649,559.857)" style="animation: 5s linear infinite both a4_fo;"/>
            <ellipse rx="90.7697" ry="90.7697" fill="#85abdb" fill-opacity="0.5" stroke="none" filter="blur(10px)" transform="translate(354.227,182.636)" style="animation: 5s linear infinite both a5_fo;"/>
            <ellipse rx="90.7697" ry="90.7697" fill="#c3f7e5" fill-opacity="0.5" stroke="none" filter="blur(10px)" transform="translate(374.227,695.135)" style="animation: 5s linear infinite both a6_fo;"/>
            <path id="hex_inside_2" fill-opacity="0" fill="url(#Gradient-1)" d="M725.944,632.073L368.238,838.592L10.5312,632.073L10.5312,218.927L368.238,12.4078L725.944,218.927Z" filter="saturate(1.2)" style="animation: 5s linear infinite both hex_inside_2_fo;"/>
            <path id="hex_inside_1" fill-opacity="1" fill="url(#Gradient-2)" d="M725.944,632.073L368.238,838.592L10.5312,632.073L10.5312,218.927L368.238,12.4078L725.944,218.927Z" filter="saturate(1.2)" style="animation: 5s linear infinite both hex_inside_1_fo;"/>
            <path id="hex_top" d="M354.227,109.215C354.028,109.213,353.829,109.213,353.63,109.213C312.29,109.213,280.2,142.45,280.2,183.79C280.2,183.806,280.2,183.821,280.2,183.837C280.2,224.778,312.845,257.818,353.63,258.451L353.63,258.461C353.829,258.461,354.028,258.46,354.227,258.458C354.426,258.46,354.625,258.461,354.824,258.461L354.824,258.451C395.609,257.818,428.254,224.778,428.254,183.837C428.254,183.821,428.254,183.806,428.254,183.79C428.254,182.374,428.216,180.967,428.142,179.571C430.767,148.444,459.071,125.06,486.639,125.421C486.639,123.978,486.55,110.256,486.55,109.774C459.862,109.774,432.627,123.943,420.442,149.923C408.488,125.714,383.952,109.213,354.824,109.213C354.625,109.213,354.426,109.213,354.227,109.215ZM296.1,183.932L296.15,183.933C296.15,158.751,314.3,136.338,336.314,128.282C341.991,126.296,348.02,125.183,354.227,125.116C360.433,125.183,366.462,126.296,372.14,128.282C394.153,136.338,412.304,158.751,412.304,183.933L412.354,183.932C412.299,215.277,385.527,240.753,354.227,241.074C322.927,240.753,296.154,215.277,296.1,183.932ZM725.944,632.073L368.238,838.592L10.5312,632.073L10.5312,218.927L368.238,12.4078L725.944,218.927L725.944,632.073ZM322.13,182.636C322.13,199.808,336.334,214.012,353.718,214.012C371.314,214.012,385.518,199.808,385.518,182.636C385.518,165.04,371.314,150.836,353.718,150.836C336.334,150.836,322.13,165.04,322.13,182.636ZM342.346,693.227C342.346,710.823,356.55,725.027,373.722,725.027C391.318,725.027,405.522,710.823,405.522,693.227C405.522,676.055,391.318,661.851,373.722,661.851C356.55,661.851,342.346,676.055,342.346,693.227ZM375.206,620.511C334.29,620.511,301.006,653.795,301.006,695.135L301.006,769.335L316.694,769.335L316.694,695.135C316.694,663.335,343.83,636.199,375.206,636.199C407.006,636.199,432.234,663.335,432.234,695.135L449.83,695.135C449.83,653.795,416.546,620.511,375.206,620.511ZM199.393,522.271C199.393,484.831,169.249,454.687,131.809,454.687C94.369,454.687,64.225,484.831,64.225,522.271C64.225,559.711,94.369,589.855,131.809,589.855L131.809,574.111C103.201,574.111,78.625,550.879,78.625,522.271C78.625,493.663,103.201,469.087,131.809,469.087C160.417,469.087,183.649,493.663,183.649,522.271L183.649,589.855L199.393,589.855L199.393,522.271ZM288.741,454.687C251.301,454.687,221.157,484.831,221.157,522.271L221.157,589.855L235.749,589.855L235.749,522.271C235.749,494.815,255.717,473.503,281.637,470.431L281.637,522.271L296.037,522.271L296.037,470.431C321.765,473.503,340.581,496.351,340.581,522.271L340.389,589.663L354.981,589.663L354.981,522.079C354.981,484.639,326.181,454.687,288.741,454.687ZM447.337,454.687C409.897,454.687,379.753,484.831,379.753,522.271L379.753,589.855L394.345,589.855L394.345,522.271C394.345,494.815,414.313,473.503,440.233,470.431L440.233,522.271L454.633,522.271L454.633,470.431C480.361,473.503,499.177,496.351,499.177,522.271L498.985,589.663L513.577,589.663L513.577,522.079C513.577,484.639,484.777,454.687,447.337,454.687ZM671.677,521.503C671.677,485.215,641.149,454.687,603.325,454.687C567.037,454.687,536.509,485.215,536.509,521.503C536.509,559.327,567.037,589.855,603.325,589.855L603.325,575.263C574.141,575.263,551.101,552.031,551.101,521.503C551.101,492.319,574.141,469.279,603.325,469.279C633.853,469.279,657.085,492.319,657.085,521.503L603.325,521.503L603.325,536.095L671.677,536.095L671.677,521.503ZM199.432,289.016L184.84,289.016L184.84,423.992L199.432,423.992L199.432,289.016ZM355.516,356.6C355.516,319.16,325.372,289.016,287.932,289.016C250.492,289.016,220.348,319.16,220.348,356.6C220.348,394.04,250.492,424.184,287.932,424.184L287.932,408.44C259.324,408.44,234.748,385.208,234.748,356.6C234.748,327.992,259.324,303.416,287.932,303.416C316.54,303.416,339.772,327.992,339.772,356.6L339.772,424.184L355.516,424.184L355.516,356.6ZM514.08,352.184L514.08,336.632L441.888,336.632L441.888,352.184L498.72,352.184C498.72,382.712,472.416,407.48,441.888,407.48C410.976,407.48,386.208,382.712,386.208,352.184C386.208,321.272,410.976,294.968,441.888,294.968L441.888,279.608C401.568,279.608,369.312,311.864,369.312,352.184C369.312,392.12,401.568,424.376,441.888,424.376C481.824,424.376,514.08,392.12,514.08,352.184ZM604.132,289.208C567.076,289.208,536.932,319.352,536.932,356.792L536.932,423.992L551.14,423.992L551.14,356.792C551.14,327.992,575.716,303.416,604.132,303.416C632.932,303.416,655.78,327.992,655.78,356.792L671.716,356.792C671.716,319.352,641.572,289.208,604.132,289.208Z" fill-opacity="0.8" fill="url(#Gradient-3)" style="mix-blend-mode: normal;"/>
            <path id="hex_outline" d="M706.338,195.45L735.638,212.35L735.638,636.65L706.338,653.55L425.138,815.95L368.238,848.75L311.338,815.95L30.1376,653.55L0.837612,636.65L0.837612,212.35L30.1376,195.45L307.938,35.05L368.238,0.25L428.538,35.05L706.338,195.45ZM725.944,632.073L725.944,218.927L368.238,12.4078L10.5312,218.927L10.5312,632.073L368.238,838.592L725.944,632.073Z" fill-opacity="0.5" fill="#5190D9"/>
        </g>
    </g>
</svg>
